<?xml version="1.0" standalone="no"?>
<!DOCTYPE svg PUBLIC "-//W3C//DTD SVG 20010904//EN"
 "http://www.w3.org/TR/2001/REC-SVG-20010904/DTD/svg10.dtd">
<svg version="1.0" xmlns="http://www.w3.org/2000/svg"
 width="176.000000pt" height="176.000000pt" viewBox="0 0 176.000000 176.000000"
 preserveAspectRatio="xMidYMid meet">
<g transform="translate(0.000000,176.000000) scale(0.100000,-0.100000)"
fill="#000000" stroke="none">
<path d="M535 1330 c4 -234 8 -526 10 -650 2 -124 4 -325 6 -448 l2 -222 32 0
32 0 0 57 c0 32 4 299 8 593 4 294 8 581 9 637 0 56 4 99 7 95 3 -4 57 -86
119 -182 62 -96 135 -208 162 -248 26 -41 48 -77 48 -81 0 -5 -56 -32 -125
-61 -69 -29 -127 -56 -129 -59 -2 -3 48 -80 112 -171 63 -91 178 -254 254
-364 133 -191 160 -226 119 -152 -11 18 -52 96 -92 172 -39 77 -79 153 -89
169 -39 67 -150 283 -150 292 0 5 58 33 130 63 90 38 128 59 125 68 -4 11
-579 897 -592 912 -2 2 -1 -187 2 -420z"/>
</g>
</svg>
